<svg id="Gruppe_4" data-name="Gruppe 4" xmlns="http://www.w3.org/2000/svg" xmlns:xlink="http://www.w3.org/1999/xlink" viewBox="0 0 136.4 32">
  <defs>
    <style>
      .cls-1 {
        fill: url(#linear-gradient);
      }

      .cls-2 {
        fill: #fff;
      }

      .cls-3 {
        fill: #28282d;
      }
    </style>
    <linearGradient id="linear-gradient" x1="0.073" y1="0.927" x2="0.927" y2="0.073" gradientUnits="objectBoundingBox">
      <stop offset="0" stop-color="#ff5c29"/>
      <stop offset="1" stop-color="#ff3794"/>
      <stop offset="1" stop-color="#ff5b6d"/>
    </linearGradient>
  </defs>
  <g id="Gruppe_1" data-name="Gruppe 1">
    <path id="Pfad_1" data-name="Pfad 1" class="cls-1" d="M24,32H8a7.981,7.981,0,0,1-8-8V8A7.981,7.981,0,0,1,8,0H24a7.981,7.981,0,0,1,8,8V24A7.981,7.981,0,0,1,24,32Z"/>
  </g>
  <g id="Gruppe_2" data-name="Gruppe 2" transform="translate(4.233 7.931)">
    <path id="Pfad_2" data-name="Pfad 2" class="cls-2" d="M24.533,39.9h-.067a1,1,0,0,1-.9-.9l-1.5-11.233-1.767,6.9a.96.96,0,0,1-.867.733.991.991,0,0,1-.967-.567l-1-2.233h-4a.767.767,0,1,1,0-1.533h4.4a1.043,1.043,0,0,1,.9.567l.467,1.067L21.3,24.529a.975.975,0,0,1,1-.733.931.931,0,0,1,.9.767V24.6l1.5,11.233,1.633-6.667a1,1,0,0,1,.9-.733.971.971,0,0,1,.967.633l1.4,3.9.6-1.333a1,1,0,0,1,.9-.567h4.433a.767.767,0,0,1,0,1.533H31.467l-1.033,2.3a.951.951,0,0,1-1.767-.067L27.4,31.362,25.467,39.2A.932.932,0,0,1,24.533,39.9Z" transform="translate(-12.7 -23.793)"/>
  </g>
  <g id="Gruppe_3" data-name="Gruppe 3" transform="translate(40 7.9)">
    <path id="Pfad_3" data-name="Pfad 3" class="cls-3" d="M132.967,40.367H130.1V33.633h-7.2v6.733H120V25h2.867v6.6h7.2V25h2.867V40.367Z" transform="translate(-120 -24.567)"/>
    <path id="Pfad_4" data-name="Pfad 4" class="cls-3" d="M169.833,37.9a4.947,4.947,0,0,1,1.9.333,4.462,4.462,0,0,1,1.5.967,4.153,4.153,0,0,1,.967,1.567,5.764,5.764,0,0,1,.367,2.1,2.207,2.207,0,0,1-.033.5c-.033.133-.033.233-.1.3a.341.341,0,0,1-.2.167.74.74,0,0,1-.3.033H167.2a3.645,3.645,0,0,0,.9,2.467,2.84,2.84,0,0,0,2.1.8A3.547,3.547,0,0,0,171.3,47a4.44,4.44,0,0,0,.8-.333c.233-.133.433-.233.6-.333a.941.941,0,0,1,.5-.133.628.628,0,0,1,.267.067.884.884,0,0,1,.2.167l.767.967a5.825,5.825,0,0,1-.967.867,7.2,7.2,0,0,1-1.133.567,5.274,5.274,0,0,1-1.2.3,7.287,7.287,0,0,1-1.2.1,6.034,6.034,0,0,1-2.1-.367,4.991,4.991,0,0,1-1.7-1.1A5.338,5.338,0,0,1,165,45.933a7.348,7.348,0,0,1-.4-2.533,6.322,6.322,0,0,1,.367-2.1A4.85,4.85,0,0,1,166,39.6a5.222,5.222,0,0,1,1.633-1.167A4.144,4.144,0,0,1,169.833,37.9Zm.067,1.867a2.424,2.424,0,0,0-1.8.633,3.243,3.243,0,0,0-.833,1.833H172.2a3.082,3.082,0,0,0-.133-.967,2.328,2.328,0,0,0-.433-.8,1.987,1.987,0,0,0-.733-.533A2.988,2.988,0,0,0,169.9,39.767Z" transform="translate(-149.733 -33.167)"/>
    <path id="Pfad_5" data-name="Pfad 5" class="cls-3" d="M208.1,48.767h-1.167a1.615,1.615,0,0,1-.6-.1A.888.888,0,0,1,206,48.2l-.233-.767c-.267.233-.533.467-.8.667a4.1,4.1,0,0,1-.833.467,4.754,4.754,0,0,1-.9.3,5.046,5.046,0,0,1-1.067.1,3.741,3.741,0,0,1-1.267-.2,2.455,2.455,0,0,1-1-.567,2.787,2.787,0,0,1-.667-.933,3.125,3.125,0,0,1-.233-1.3,2.455,2.455,0,0,1,.333-1.233,3.021,3.021,0,0,1,1.067-1.1,6.243,6.243,0,0,1,2-.8,13.348,13.348,0,0,1,3.1-.333v-.633a2.511,2.511,0,0,0-.467-1.633A1.642,1.642,0,0,0,203.7,39.7a3.326,3.326,0,0,0-1.067.133,3.013,3.013,0,0,0-.733.333c-.2.133-.4.233-.567.333a1.142,1.142,0,0,1-.6.133.765.765,0,0,1-.467-.133.946.946,0,0,1-.3-.333l-.467-.833a6.578,6.578,0,0,1,4.533-1.733,4.546,4.546,0,0,1,1.7.3,3.431,3.431,0,0,1,1.267.867,4.438,4.438,0,0,1,.8,1.333,5.672,5.672,0,0,1,.267,1.7v6.967ZM203,47.133a4.6,4.6,0,0,0,.733-.067,2.064,2.064,0,0,0,.633-.233,5.8,5.8,0,0,0,.6-.367,3.809,3.809,0,0,0,.567-.5V44.133a10.748,10.748,0,0,0-1.933.133,6.151,6.151,0,0,0-1.233.367,1.874,1.874,0,0,0-.667.533,1.2,1.2,0,0,0-.2.667,1.17,1.17,0,0,0,.4,1A1.865,1.865,0,0,0,203,47.133Z" transform="translate(-172.667 -32.967)"/>
    <path id="Pfad_6" data-name="Pfad 6" class="cls-3" d="M233.6,48.833v-10.9h1.533a.834.834,0,0,1,.567.133.873.873,0,0,1,.2.5l.167,1.333a5.417,5.417,0,0,1,1.367-1.6,2.831,2.831,0,0,1,1.767-.6,2.334,2.334,0,0,1,1.333.367l-.333,1.967c-.033.133-.067.233-.133.267-.067.067-.167.067-.3.067a2.772,2.772,0,0,1-.433-.067,4.244,4.244,0,0,0-.733-.067,2.282,2.282,0,0,0-1.4.467,3.267,3.267,0,0,0-1,1.333v6.8Z" transform="translate(-195.733 -33.033)"/>
    <path id="Pfad_7" data-name="Pfad 7" class="cls-3" d="M261.667,42.8A2.843,2.843,0,0,1,259.5,42a3.127,3.127,0,0,1-.767-2.233V33.7h-1.1a.5.5,0,0,1-.367-.133.552.552,0,0,1-.167-.4V32.133l1.767-.3.567-2.967a.567.567,0,0,1,.2-.333.715.715,0,0,1,.4-.133H261.4v3.433h2.867V33.7H261.4v5.9a1.216,1.216,0,0,0,.267.8.839.839,0,0,0,.667.3,1.243,1.243,0,0,0,.4-.067,1.183,1.183,0,0,0,.3-.133.836.836,0,0,0,.233-.133.333.333,0,0,1,.4,0l.167.167.8,1.267a3.709,3.709,0,0,1-1.333.733A4.787,4.787,0,0,1,261.667,42.8Z" transform="translate(-211.4 -26.833)"/>
    <path id="Pfad_8" data-name="Pfad 8" class="cls-3" d="M285.4,39.5V23.7h2.633v6.233a5.133,5.133,0,0,1,1.467-1.1,4.3,4.3,0,0,1,1.9-.4,3.788,3.788,0,0,1,1.633.367,3.251,3.251,0,0,1,1.267,1.067,4.939,4.939,0,0,1,.833,1.733,8.5,8.5,0,0,1,.3,2.367,7.172,7.172,0,0,1-.333,2.267,5.747,5.747,0,0,1-.933,1.8,4.647,4.647,0,0,1-1.467,1.2,4.123,4.123,0,0,1-1.933.433,3.718,3.718,0,0,1-.9-.1,5.182,5.182,0,0,1-.767-.267,4.249,4.249,0,0,1-.633-.433c-.2-.167-.367-.367-.567-.567l-.133.733a.547.547,0,0,1-.233.4.742.742,0,0,1-.433.133h-1.7Zm5.1-9.033a2.722,2.722,0,0,0-1.4.333,4.133,4.133,0,0,0-1.067.967v4.9a2.519,2.519,0,0,0,.967.767,3.276,3.276,0,0,0,1.133.233,2.188,2.188,0,0,0,1.067-.233,1.734,1.734,0,0,0,.8-.667,2.879,2.879,0,0,0,.5-1.167,6.008,6.008,0,0,0,.167-1.633,7.7,7.7,0,0,0-.167-1.633,2.858,2.858,0,0,0-.433-1.067,1.985,1.985,0,0,0-.7-.6A1.668,1.668,0,0,0,290.5,30.467Z" transform="translate(-230.267 -23.7)"/>
    <path id="Pfad_9" data-name="Pfad 9" class="cls-3" d="M325.033,37.9a4.947,4.947,0,0,1,1.9.333,4.461,4.461,0,0,1,1.5.967,4.153,4.153,0,0,1,.967,1.567,5.765,5.765,0,0,1,.367,2.1,2.206,2.206,0,0,1-.033.5c-.033.133-.033.233-.1.3a.341.341,0,0,1-.2.167.74.74,0,0,1-.3.033H322.4a3.645,3.645,0,0,0,.9,2.467,2.84,2.84,0,0,0,2.1.8A3.548,3.548,0,0,0,326.5,47a4.441,4.441,0,0,0,.8-.333c.233-.133.433-.233.6-.333a.941.941,0,0,1,.5-.133.628.628,0,0,1,.267.067.884.884,0,0,1,.2.167l.767.967a5.827,5.827,0,0,1-.967.867,7.2,7.2,0,0,1-1.133.567,7.9,7.9,0,0,1-1.2.3,7.288,7.288,0,0,1-1.2.1,6.034,6.034,0,0,1-2.1-.367,4.991,4.991,0,0,1-1.7-1.1,5.337,5.337,0,0,1-1.133-1.833,7.348,7.348,0,0,1-.4-2.533,6.321,6.321,0,0,1,.367-2.1,4.849,4.849,0,0,1,1.033-1.7,5.221,5.221,0,0,1,1.633-1.167A4.144,4.144,0,0,1,325.033,37.9Zm.067,1.867a2.425,2.425,0,0,0-1.8.633,3.244,3.244,0,0,0-.833,1.833H327.4a3.081,3.081,0,0,0-.133-.967,2.327,2.327,0,0,0-.433-.8,1.988,1.988,0,0,0-.733-.533A2.988,2.988,0,0,0,325.1,39.767Z" transform="translate(-253.2 -33.167)"/>
    <path id="Pfad_10" data-name="Pfad 10" class="cls-3" d="M363.5,48.767h-1.167a1.614,1.614,0,0,1-.6-.1.888.888,0,0,1-.333-.467l-.233-.767c-.267.233-.533.467-.8.667a4.1,4.1,0,0,1-.833.467,4.754,4.754,0,0,1-.9.3,5.046,5.046,0,0,1-1.067.1,3.741,3.741,0,0,1-1.267-.2,2.454,2.454,0,0,1-1-.567,2.787,2.787,0,0,1-.667-.933,3.125,3.125,0,0,1-.233-1.3,2.455,2.455,0,0,1,.333-1.233,3.021,3.021,0,0,1,1.067-1.1,6.243,6.243,0,0,1,2-.8,13.348,13.348,0,0,1,3.1-.333v-.633a2.511,2.511,0,0,0-.467-1.633A1.642,1.642,0,0,0,359.1,39.7a3.326,3.326,0,0,0-1.067.133,3.013,3.013,0,0,0-.733.333c-.2.133-.4.233-.567.333a1.142,1.142,0,0,1-.6.133.765.765,0,0,1-.467-.133.946.946,0,0,1-.3-.333l-.467-.833a6.578,6.578,0,0,1,4.533-1.733,4.546,4.546,0,0,1,1.7.3,3.431,3.431,0,0,1,1.267.867,4.438,4.438,0,0,1,.8,1.333,5.672,5.672,0,0,1,.267,1.7v6.967Zm-5.133-1.633a4.6,4.6,0,0,0,.733-.067,2.063,2.063,0,0,0,.633-.233,5.792,5.792,0,0,0,.6-.367,3.809,3.809,0,0,0,.567-.5V44.133a10.748,10.748,0,0,0-1.933.133,6.153,6.153,0,0,0-1.233.367,1.874,1.874,0,0,0-.667.533,1.2,1.2,0,0,0-.2.667,1.17,1.17,0,0,0,.4,1A2.016,2.016,0,0,0,358.367,47.133Z" transform="translate(-276.267 -32.967)"/>
    <path id="Pfad_11" data-name="Pfad 11" class="cls-3" d="M391.167,42.8A2.843,2.843,0,0,1,389,42a3.127,3.127,0,0,1-.767-2.233V33.7h-1.1a.5.5,0,0,1-.367-.133.552.552,0,0,1-.167-.4V32.133l1.767-.3.567-2.967a.567.567,0,0,1,.2-.333.715.715,0,0,1,.4-.133H390.9v3.433h2.867V33.7H390.9v5.9a1.216,1.216,0,0,0,.267.8.839.839,0,0,0,.667.3,1.243,1.243,0,0,0,.4-.067,1.183,1.183,0,0,0,.3-.133.835.835,0,0,0,.233-.133.333.333,0,0,1,.4,0l.167.167.8,1.267a3.709,3.709,0,0,1-1.333.733A4.917,4.917,0,0,1,391.167,42.8Z" transform="translate(-297.733 -26.833)"/>
  </g>
</svg>
